<?xml version="1.0" standalone="no"?>
<!DOCTYPE svg PUBLIC "-//W3C//DTD SVG 20010904//EN"
 "http://www.w3.org/TR/2001/REC-SVG-20010904/DTD/svg10.dtd">
<svg version="1.0" xmlns="http://www.w3.org/2000/svg"
 width="420.000000pt" height="420.000000pt" viewBox="0 0 420.000000 420.000000"
 preserveAspectRatio="xMidYMid meet">
<metadata>
Created by potrace 1.11, written by Peter Selinger 2001-2013
</metadata>
<g transform="translate(0.000000,420.000000) scale(0.100000,-0.100000)"
fill="#000000" stroke="none">
<path d="M1918 4185 c-2 -2 -30 -6 -63 -9 -189 -20 -408 -79 -600 -164 -589
-258 -1031 -786 -1184 -1412 -50 -204 -56 -268 -55 -530 0 -190 7 -254 38
-405 36 -169 104 -362 187 -523 39 -75 77 -144 85 -153 8 -8 14 -19 14 -22 0
-11 108 -156 169 -227 307 -357 726 -603 1181 -694 157 -32 256 -41 440 -39
125 1 183 6 330 28 318 48 708 226 970 444 79 66 229 216 294 294 79 95 191
272 255 402 501 1021 97 2251 -912 2780 -182 96 -405 173 -581 201 -21 3 -48
8 -60 10 -74 15 -222 25 -353 23 -83 0 -153 -2 -155 -4z m437 -107 c11 -3 43
-9 70 -13 174 -25 462 -121 608 -204 20 -11 52 -30 71 -40 192 -109 365 -257
549 -469 106 -123 262 -404 327 -587 109 -312 141 -660 89 -983 -81 -509 -347
-947 -784 -1290 -98 -77 -327 -200 -479 -259 -99 -37 -285 -88 -363 -99 -26
-3 -51 -8 -54 -10 -13 -7 -181 -18 -294 -18 -126 0 -235 9 -319 25 -28 5 -64
12 -81 15 -208 37 -497 159 -705 299 -63 42 -117 80 -120 83 -3 4 -31 29 -62
55 -371 312 -630 794 -686 1277 -15 134 -7 472 13 565 3 11 7 31 9 45 15 91
57 236 108 370 55 146 194 383 301 514 64 78 214 227 296 295 276 226 666 391
1011 427 30 3 57 8 59 10 6 5 412 -2 436 -8z"/>
<path d="M1550 3499 c-77 -30 -139 -154 -176 -350 -19 -100 -25 -330 -12 -449
19 -167 82 -329 150 -383 31 -25 42 -28 73 -23 45 9 86 49 121 117 27 54 59
152 68 209 3 19 9 46 12 60 4 14 8 108 9 210 3 160 0 200 -20 297 -46 223
-135 347 -225 312z"/>
<path d="M2621 3473 c-62 -62 -114 -199 -138 -363 -10 -72 -10 -349 0 -423 43
-308 175 -466 290 -344 53 57 107 197 131 342 12 68 15 346 5 420 -23 169 -74
310 -135 371 -28 27 -42 34 -75 34 -34 0 -47 -7 -78 -37z"/>
<path d="M3415 2074 c-63 -15 -82 -35 -69 -71 9 -27 13 -28 82 -31 l72 -3 -5
-52 c-75 -669 -667 -1188 -1360 -1190 -167 0 -242 8 -380 45 -516 136 -907
551 -1000 1061 -22 117 -20 122 32 119 46 -4 83 22 83 57 0 55 -189 75 -301
32 -98 -37 -126 -93 -60 -121 24 -10 36 -8 72 8 l44 21 6 -27 c3 -15 12 -63
19 -107 31 -207 154 -477 289 -639 62 -76 223 -227 291 -275 197 -138 458
-243 665 -267 33 -3 69 -8 80 -10 11 -3 74 -5 140 -5 617 -3 1172 366 1396
926 49 124 85 267 91 368 2 35 19 49 33 27 14 -23 80 -9 96 21 38 71 -178 149
-316 113z"/>
</g>
</svg>
